# xmcd
#
# Track frame offsets: 
#        182
#        15800
#        31700
#        45057
#        59630
#        78305
#        92887
#        106360
#        118582
#        130612
#        149437
#
# Disc length: 2160 seconds
#
# Revision: 12
# Processed by: cddbd v1.5.2PL0 Copyright (c) Steve Scherf et al.
# Submitted via: ExactAudioCopy v0.99pb5
#
DISCID=7e086e0b
DTITLE=Holly Dunn - Milestones Greatest Hits
DYEAR=1991
DGENRE=Country
TTITLE0=Daddy's Hands
TTITLE1=Only When I Love
TTITLE2=Someday
TTITLE3=Love Someone Like Me
TTITLE4=A Face In The Crowd
TTITLE5=Strangers Again
TTITLE6=Maybe I Mean Yes
TTITLE7=There Goes My Heart Again
TTITLE8=Are You Ever Gonna Love Me
TTITLE9=No One Takes The Train Anymore
TTITLE10=You Really Had Me Going
EXTD=
EXTT0=
EXTT1=
EXTT2=
EXTT3=
EXTT4=
EXTT5=
EXTT6=
EXTT7=
EXTT8=
EXTT9=
EXTT10=
PLAYORDER=
